# xmcd
#
# Track frame offsets:
#	150
#	14782
#	28900
#	45922
#	65597
#	80307
#	95327
#	110205
#	126562
#	140047
#	155000
#	171702
#	185067
#	206762
#	219070
#	230455
#
# Disc length: 3268 seconds
#
# Revision: 1
# Processed by: cddbd v1.5.2PL0 Copyright (c) Steve Scherf et al.
# Submitted via: audiograbber 1.83.01
#
DISCID=f50cc210
DTITLE=Various Artist - MH1026
DYEAR=1900
DGENRE=Karaoke
TTITLE0=Denver, John - Take Me Home, Country Roads
TTITLE1=Strait, George - Ocean Front Property
TTITLE2=Cash, Johnny - Boy Named Sue, A
TTITLE3=Goldsboro, Bobby - Honey
TTITLE4=Campbell, Glen - Rhinestone Cowboy
TTITLE5=Jennings, Waylon - Good Hearted Woman
TTITLE6=Thomas, B.J. - I'm So Lonesome I Could Cry
TTITLE7=Jennings, Waylon - Luckenbach Texas (Back To The Basics Of Life)
TTITLE8=Rogers, Kenny - Ruby, Don't Take Your Love To Town
TTITLE9=Denver, John - Thank God I'm A Country Boy
TTITLE10=Rogers, Kenny - You Decorated My Life
TTITLE11=Oak Ridge Boys, The - American Made
TTITLE12=Rogers, Kenny - Through The Years
TTITLE13=Reeves, Jim - Welcome To My World
TTITLE14=Nelson, Willie - Blue Eyes Crying In The Rain
TTITLE15=Thomas, B.J. - Raindrops Keep Falling On My Head
EXTD=
EXTT0=
EXTT1=
EXTT2=
EXTT3=
EXTT4=
EXTT5=
EXTT6=
EXTT7=
EXTT8=
EXTT9=
EXTT10=
EXTT11=
EXTT12=
EXTT13=
EXTT14=
EXTT15=
PLAYORDER=
